# xmcd
#
# Track frame offsets:
#   182
#   20882
#   38132
#   56807
#   76232
#   94532
#   108407
#   123932
#   141557
#
# Disc length: 2110 seconds
#
# Revision: 0
# Processed by: cddbd v1.5.1PL0 Copyright (c) Steve Scherf et al.
# Submitted via: GXTranscoder 2.0.1939
#
DISCID=78083c09
DTITLE=juan pardo - juan mucho mas juan
DYEAR=1980
DGENRE=Disco
TTITLE0=muchacha
TTITLE1=amar despues de amar
TTITLE2=maria
TTITLE3=ahora te quiero
TTITLE4=lo siento amor
TTITLE5=sin ti
TTITLE6=no me hables
TTITLE7=te da vergüernza
TTITLE8=por que te quise y te quiero
EXTD=
EXTT0=
EXTT1=
EXTT2=
EXTT3=
EXTT4=
EXTT5=
EXTT6=
EXTT7=
EXTT8=
PLAYORDER=
